#!OML:ASF F:\VICON\USERDATA\INSTALL\rory3\rory3.ASF
:FULLY-SPECIFIED
:DEGREES
34
root 0.9383496576816612 18.08998892145889 -6.409890425258446 -4.750517256147596 -3.7055404570063386 0.02009391252682713
lfemur -9.605881828534667 -0.8516265866642798 -24.383556273574094
ltibia 24.61765246338377
lfoot -13.659006917807236 1.2656558227259933
ltoes -0.7604774821249602
rfemur -14.771009102729836 1.3714608062193667 21.584646233027716
rtibia 74.31491365785858
rfoot 7.351319561948543 -3.3383395393358133
rtoes 14.463370464316906
lowerback 10.312230050646027 1.335554173750638 -0.7260578562391544
upperback 0.6406896949588814 1.6024594800291811 -0.1599180809355194
thorax -5.255900715159038 0.8329719778254616 0.24927780725348692
lowerneck -15.624137838760472 -2.8569373386440557 -1.8160440376931886
upperneck 22.829001581509267 -3.6934673991381 0.49772341777075546
head 9.92757941430555 -1.7903994576274516 -0.03305824099721781
lclavicle -1.3874280457951916e-15 -1.8436985999892267e-15
lhumerus -34.09148650263071 7.1856407511966065 79.45995150115152
lradius 21.297508637268706
lwrist 3.1622593036421165
lhand -29.770780177746826 20.586293313216895
lfingers 7.125019999999999
lthumb -3.1256136412555464 50.4862819476323
rclavicle -1.387428045942429e-15 -1.8436986001255368e-15
rhumerus -28.228351357561543 -20.911115706857967 -80.57043015608991
rradius 22.77963125588382
rwrist 4.604475122105366
rhand -18.20381583414935 22.33170581214774
rfingers 7.125019999999999
rthumb 7.866589929520332 -7.788696016809647
35
root 0.9281500505594512 18.072687106264446 -5.240586325546866 -4.684624734520844 -2.999662370844556 0.3465635275385157
lfemur -6.831062154356153 -0.5899722012997795 -24.952555445627244
ltibia 23.741214373183468
lfoot -15.394189107968838 1.8833724679912107
ltoes -0.23089623380003976
rfemur -19.498708818537054 0.4704061499179879 21.2577051766068
rtibia 76.07077818339937
rfoot 2.0109514797036923 -5.26049409282428
rtoes 12.840741998603523
lowerback 10.786662680184648 0.8297917404733139 -1.177237962926276
upperback 0.6975967176594251 0.917982820752026 -0.04292795209181888
thorax -5.4281701349998315 0.4979013051842488 0.8224239402576528
lowerneck -15.698498895872866 -2.8126210266401204 -2.019930098239664
upperneck 22.73959430578346 -3.5544197052320117 0.4937464497866158
head 9.9328192357431 -1.7324794422278398 -0.014290858123240768
lclavicle -1.387428045783006e-15 -1.843698599976907e-15
lhumerus -32.40371975648401 5.743008874973231 79.84473730478886
lradius 22.182718109912436
lwrist 2.8380978681656464
lhand -28.50820931129518 21.894827013355563
lfingers 7.125019999999999
lthumb -2.143518368672299 51.45803923050422
rclavicle -1.3874280459278895e-15 -1.843698600111117e-15
rhumerus -29.314255288148075 -22.120110771598867 -80.1557910836064
rradius 22.77863686858246
rwrist 4.113292111278165
rhand -18.292434437701605 21.56690807090584
rfingers 7.125019999999999
rthumb 7.821433990453719 -8.47856455536263
36
root 0.9169513144665126 18.06530078139332 -4.455311037161097 -4.527447879162597 -2.2309712854014 0.5940885570373511
lfemur -4.756063892570545 -0.7809846966361813 -25.460783242087373
ltibia 23.675811590438087
lfoot -16.870825830574375 2.408835158154055
ltoes 0.7989641885540002
rfemur -23.243404350474442 -0.16876766218238526 21.189701127991803
rtibia 74.10466597235524
rfoot -1.961358293668475 -5.274424837265789
rtoes 10.902247053703501
lowerback 11.13526817727898 0.29926805600686773 -1.5280269921260854
upperback 0.7442425854745657 0.18537224353840726 0.21620979967232223
thorax -5.510141648361171 0.17232367656020867 1.3782080474153784
lowerneck -15.84001970584208 -2.7459742523231965 -2.0958392814460534
upperneck 22.764711277131333 -3.385833355519116 0.42071677399815866
head 9.965023664189905 -1.6815792477033662 -0.010431980331131296
lclavicle -1.3874280457822115e-15 -1.84369859997467e-15
lhumerus -30.719933766130925 3.7961826594342387 80.42467930988627
lradius 23.607535443417095
lwrist 3.9224582115977147
lhand -27.636983387216443 22.876267315707096
lfingers 7.125019999999999
lthumb -1.2215377959616183 52.52396492285987
rclavicle -1.3874280459216208e-15 -1.8436986001037145e-15
rhumerus -30.4781434079144 -22.65572598727093 -79.69665386785054
rradius 23.235647484917973
rwrist 2.6832637031393887
rhand -18.140356823997948 22.024484052329292
rfingers 7.125019999999999
rthumb 7.96162480572999 -8.009495459453923
37
root 0.9022019630820571 18.003438452058454 -3.475402587152141 -4.219993688961619 -1.4914564138621769 1.155463872976528
lfemur -2.6909288197276986 -1.1174116555666342 -26.183600606431522
ltibia 23.55465048198202
lfoot -18.83916203514502 2.688756739357654
ltoes 2.1744186401762566
rfemur -26.398816439342397 -0.2960345507672155 20.842577007331435
rtibia 69.50876132677037
rfoot -5.321979294437098 -5.039705941350181
rtoes 9.111251388357026
lowerback 11.323898125075702 -0.14391218277828183 -2.2771774476006845
upperback 0.8109850351701662 -0.430250405840377 0.4421409873112374
thorax -5.398926025196264 -0.12144843828787621 1.9618511770614817
lowerneck -15.807079208864566 -2.7689289420342087 -2.1655239110397217
upperneck 22.421686646949315 -3.3662807577891196 0.3291850428855191
head 9.811732732818468 -1.6871657529768382 -0.029238529996046758
lclavicle -1.3874280457832329e-15 -1.843698599975105e-15
lhumerus -28.747169647332125 2.06564561942238 80.82884026183227
lradius 25.108288595282126
lwrist 5.051407404294526
lhand -26.70738794175659 24.11014969715813
lfingers 7.125019999999999
lthumb -0.13522643257175948 53.90539489769315
rclavicle -1.3874280459186282e-15 -1.843698600100409e-15
rhumerus -31.544931287056762 -22.829311803667807 -79.38555220777585
rradius 23.629037759872816
rwrist 1.5029161742628414
rhand -18.236589128216764 22.346157132266956
rfingers 7.125019999999999
rthumb 7.802074786628349 -7.787215065888404
